<mxfile host="app.diagrams.net" agent="Mozilla/5.0 (Windows NT 10.0; Win64; x64) AppleWebKit/537.36 (KHTML, like Gecko) Chrome/134.0.0.0 Safari/537.36" version="26.1.1">
  <diagram name="PÃ¡gina-1" id="BzJjlylcrEKQn-_PNT2H">
    <mxGraphModel dx="1114" dy="558" grid="1" gridSize="10" guides="1" tooltips="1" connect="1" arrows="1" fold="1" page="1" pageScale="1" pageWidth="827" pageHeight="1169" math="0" shadow="0">
      <root>
        <mxCell id="0" />
        <mxCell id="1" parent="0" />
        <mxCell id="Gohm2ubmYAme0MA3quc5-3" style="edgeStyle=orthogonalEdgeStyle;rounded=0;orthogonalLoop=1;jettySize=auto;html=1;exitX=0.5;exitY=1;exitDx=0;exitDy=0;" parent="1" source="Gohm2ubmYAme0MA3quc5-1" target="Gohm2ubmYAme0MA3quc5-2" edge="1">
          <mxGeometry relative="1" as="geometry" />
        </mxCell>
        <mxCell id="Gohm2ubmYAme0MA3quc5-1" value="start" style="rounded=1;whiteSpace=wrap;html=1;" parent="1" vertex="1">
          <mxGeometry x="310" y="60" width="120" height="60" as="geometry" />
        </mxCell>
        <mxCell id="Gohm2ubmYAme0MA3quc5-6" style="edgeStyle=orthogonalEdgeStyle;rounded=1;orthogonalLoop=1;jettySize=auto;html=1;exitX=0;exitY=0.5;exitDx=0;exitDy=0;entryX=0.5;entryY=0;entryDx=0;entryDy=0;curved=0;strokeWidth=2;" parent="1" source="Gohm2ubmYAme0MA3quc5-2" target="Gohm2ubmYAme0MA3quc5-5" edge="1">
          <mxGeometry relative="1" as="geometry" />
        </mxCell>
        <mxCell id="Gohm2ubmYAme0MA3quc5-10" style="edgeStyle=orthogonalEdgeStyle;rounded=1;orthogonalLoop=1;jettySize=auto;html=1;exitX=0.5;exitY=1;exitDx=0;exitDy=0;entryX=0;entryY=0.5;entryDx=0;entryDy=0;curved=0;strokeWidth=2;" parent="1" source="Gohm2ubmYAme0MA3quc5-2" target="Gohm2ubmYAme0MA3quc5-7" edge="1">
          <mxGeometry relative="1" as="geometry">
            <Array as="points">
              <mxPoint x="370" y="240" />
              <mxPoint x="290" y="240" />
              <mxPoint x="290" y="350" />
            </Array>
          </mxGeometry>
        </mxCell>
        <mxCell id="Gohm2ubmYAme0MA3quc5-85" value="Kenter" style="edgeLabel;html=1;align=center;verticalAlign=middle;resizable=0;points=[];" parent="Gohm2ubmYAme0MA3quc5-10" vertex="1" connectable="0">
          <mxGeometry x="-0.35" y="-2" relative="1" as="geometry">
            <mxPoint x="8" y="-8" as="offset" />
          </mxGeometry>
        </mxCell>
        <mxCell id="Gohm2ubmYAme0MA3quc5-2" value="menu_drink" style="rounded=1;whiteSpace=wrap;html=1;" parent="1" vertex="1">
          <mxGeometry x="310" y="150" width="120" height="60" as="geometry" />
        </mxCell>
        <mxCell id="Gohm2ubmYAme0MA3quc5-5" value="out_of_service" style="rounded=1;whiteSpace=wrap;html=1;" parent="1" vertex="1">
          <mxGeometry x="120" y="210" width="120" height="60" as="geometry" />
        </mxCell>
        <mxCell id="Gohm2ubmYAme0MA3quc5-17" style="edgeStyle=orthogonalEdgeStyle;rounded=1;orthogonalLoop=1;jettySize=auto;html=1;exitX=0.75;exitY=0;exitDx=0;exitDy=0;entryX=0.25;entryY=0;entryDx=0;entryDy=0;curved=0;" parent="1" source="Gohm2ubmYAme0MA3quc5-7" target="Gohm2ubmYAme0MA3quc5-8" edge="1">
          <mxGeometry relative="1" as="geometry" />
        </mxCell>
        <mxCell id="Gohm2ubmYAme0MA3quc5-21" value="Knext | sensors(0) = 1" style="edgeLabel;html=1;align=center;verticalAlign=middle;resizable=0;points=[];" parent="Gohm2ubmYAme0MA3quc5-17" vertex="1" connectable="0">
          <mxGeometry x="0.0138" y="-1" relative="1" as="geometry">
            <mxPoint x="-2" y="9" as="offset" />
          </mxGeometry>
        </mxCell>
        <mxCell id="Gohm2ubmYAme0MA3quc5-18" style="edgeStyle=orthogonalEdgeStyle;rounded=1;orthogonalLoop=1;jettySize=auto;html=1;exitX=0.25;exitY=0;exitDx=0;exitDy=0;entryX=0.75;entryY=0;entryDx=0;entryDy=0;curved=0;" parent="1" source="Gohm2ubmYAme0MA3quc5-7" target="Gohm2ubmYAme0MA3quc5-9" edge="1">
          <mxGeometry relative="1" as="geometry">
            <Array as="points">
              <mxPoint x="328" y="270" />
              <mxPoint x="703" y="270" />
            </Array>
          </mxGeometry>
        </mxCell>
        <mxCell id="Gohm2ubmYAme0MA3quc5-23" value="Kback" style="edgeLabel;html=1;align=center;verticalAlign=middle;resizable=0;points=[];" parent="Gohm2ubmYAme0MA3quc5-18" vertex="1" connectable="0">
          <mxGeometry x="0.0404" y="2" relative="1" as="geometry">
            <mxPoint x="-6" y="-8" as="offset" />
          </mxGeometry>
        </mxCell>
        <mxCell id="Gohm2ubmYAme0MA3quc5-32" style="edgeStyle=orthogonalEdgeStyle;rounded=1;orthogonalLoop=1;jettySize=auto;html=1;exitX=0.5;exitY=1;exitDx=0;exitDy=0;entryX=0.5;entryY=0;entryDx=0;entryDy=0;curved=0;strokeWidth=2;" parent="1" source="Gohm2ubmYAme0MA3quc5-7" target="Gohm2ubmYAme0MA3quc5-31" edge="1">
          <mxGeometry relative="1" as="geometry">
            <Array as="points">
              <mxPoint x="345" y="440" />
              <mxPoint x="519" y="440" />
            </Array>
          </mxGeometry>
        </mxCell>
        <mxCell id="Gohm2ubmYAme0MA3quc5-35" value="Ktam" style="edgeLabel;html=1;align=center;verticalAlign=middle;resizable=0;points=[];" parent="Gohm2ubmYAme0MA3quc5-32" vertex="1" connectable="0">
          <mxGeometry x="0.1358" y="4" relative="1" as="geometry">
            <mxPoint x="4" y="-6" as="offset" />
          </mxGeometry>
        </mxCell>
        <mxCell id="Gohm2ubmYAme0MA3quc5-7" value="coke" style="rounded=1;whiteSpace=wrap;html=1;" parent="1" vertex="1">
          <mxGeometry x="310" y="330" width="70" height="40" as="geometry" />
        </mxCell>
        <mxCell id="Gohm2ubmYAme0MA3quc5-14" style="edgeStyle=orthogonalEdgeStyle;rounded=1;orthogonalLoop=1;jettySize=auto;html=1;exitX=0.75;exitY=0;exitDx=0;exitDy=0;entryX=0.25;entryY=0;entryDx=0;entryDy=0;curved=0;" parent="1" source="Gohm2ubmYAme0MA3quc5-8" target="Gohm2ubmYAme0MA3quc5-9" edge="1">
          <mxGeometry relative="1" as="geometry" />
        </mxCell>
        <mxCell id="Gohm2ubmYAme0MA3quc5-25" value="knext | sensors(1) = 1" style="edgeLabel;html=1;align=center;verticalAlign=middle;resizable=0;points=[];" parent="Gohm2ubmYAme0MA3quc5-14" vertex="1" connectable="0">
          <mxGeometry x="-0.0671" y="4" relative="1" as="geometry">
            <mxPoint x="4" y="14" as="offset" />
          </mxGeometry>
        </mxCell>
        <mxCell id="Gohm2ubmYAme0MA3quc5-20" style="edgeStyle=orthogonalEdgeStyle;rounded=1;orthogonalLoop=1;jettySize=auto;html=1;exitX=0.25;exitY=1;exitDx=0;exitDy=0;entryX=0.75;entryY=1;entryDx=0;entryDy=0;curved=0;" parent="1" source="Gohm2ubmYAme0MA3quc5-8" target="Gohm2ubmYAme0MA3quc5-7" edge="1">
          <mxGeometry relative="1" as="geometry" />
        </mxCell>
        <mxCell id="Gohm2ubmYAme0MA3quc5-26" value="Kback" style="edgeLabel;html=1;align=center;verticalAlign=middle;resizable=0;points=[];" parent="Gohm2ubmYAme0MA3quc5-20" vertex="1" connectable="0">
          <mxGeometry x="-0.0252" y="2" relative="1" as="geometry">
            <mxPoint y="-12" as="offset" />
          </mxGeometry>
        </mxCell>
        <mxCell id="Gohm2ubmYAme0MA3quc5-33" style="edgeStyle=orthogonalEdgeStyle;rounded=1;orthogonalLoop=1;jettySize=auto;html=1;exitX=0.5;exitY=1;exitDx=0;exitDy=0;curved=0;entryX=0.5;entryY=0;entryDx=0;entryDy=0;strokeWidth=2;" parent="1" source="Gohm2ubmYAme0MA3quc5-8" target="Gohm2ubmYAme0MA3quc5-31" edge="1">
          <mxGeometry relative="1" as="geometry">
            <mxPoint x="519" y="460" as="targetPoint" />
          </mxGeometry>
        </mxCell>
        <mxCell id="Gohm2ubmYAme0MA3quc5-37" value="Ktam" style="edgeLabel;html=1;align=center;verticalAlign=middle;resizable=0;points=[];rotation=90;" parent="Gohm2ubmYAme0MA3quc5-33" vertex="1" connectable="0">
          <mxGeometry x="-0.1455" y="-3" relative="1" as="geometry">
            <mxPoint x="15" as="offset" />
          </mxGeometry>
        </mxCell>
        <mxCell id="Gohm2ubmYAme0MA3quc5-8" value="water" style="rounded=1;whiteSpace=wrap;html=1;" parent="1" vertex="1">
          <mxGeometry x="483.5" y="330" width="70" height="40" as="geometry" />
        </mxCell>
        <mxCell id="Gohm2ubmYAme0MA3quc5-15" style="edgeStyle=orthogonalEdgeStyle;rounded=1;orthogonalLoop=1;jettySize=auto;html=1;exitX=0.5;exitY=0;exitDx=0;exitDy=0;entryX=0.5;entryY=0;entryDx=0;entryDy=0;curved=0;" parent="1" source="Gohm2ubmYAme0MA3quc5-9" target="Gohm2ubmYAme0MA3quc5-7" edge="1">
          <mxGeometry relative="1" as="geometry">
            <mxPoint x="625" y="270" as="targetPoint" />
            <Array as="points">
              <mxPoint x="685" y="290" />
              <mxPoint x="345" y="290" />
            </Array>
          </mxGeometry>
        </mxCell>
        <mxCell id="Gohm2ubmYAme0MA3quc5-24" value="Knext | sensors(2) = 1" style="edgeLabel;html=1;align=center;verticalAlign=middle;resizable=0;points=[];" parent="Gohm2ubmYAme0MA3quc5-15" vertex="1" connectable="0">
          <mxGeometry x="-0.0095" y="-1" relative="1" as="geometry">
            <mxPoint x="2" y="-9" as="offset" />
          </mxGeometry>
        </mxCell>
        <mxCell id="Gohm2ubmYAme0MA3quc5-19" style="edgeStyle=orthogonalEdgeStyle;rounded=1;orthogonalLoop=1;jettySize=auto;html=1;exitX=0.25;exitY=1;exitDx=0;exitDy=0;entryX=0.75;entryY=1;entryDx=0;entryDy=0;curved=0;" parent="1" source="Gohm2ubmYAme0MA3quc5-9" target="Gohm2ubmYAme0MA3quc5-8" edge="1">
          <mxGeometry relative="1" as="geometry" />
        </mxCell>
        <mxCell id="Gohm2ubmYAme0MA3quc5-27" value="Kback" style="edgeLabel;html=1;align=center;verticalAlign=middle;resizable=0;points=[];" parent="Gohm2ubmYAme0MA3quc5-19" vertex="1" connectable="0">
          <mxGeometry x="0.102" y="-1" relative="1" as="geometry">
            <mxPoint x="7" y="-9" as="offset" />
          </mxGeometry>
        </mxCell>
        <mxCell id="Gohm2ubmYAme0MA3quc5-34" style="edgeStyle=orthogonalEdgeStyle;rounded=1;orthogonalLoop=1;jettySize=auto;html=1;exitX=0.5;exitY=1;exitDx=0;exitDy=0;curved=0;entryX=0.5;entryY=0;entryDx=0;entryDy=0;strokeWidth=2;" parent="1" source="Gohm2ubmYAme0MA3quc5-9" target="Gohm2ubmYAme0MA3quc5-31" edge="1">
          <mxGeometry relative="1" as="geometry">
            <mxPoint x="520" y="460" as="targetPoint" />
            <Array as="points">
              <mxPoint x="685" y="440" />
              <mxPoint x="519" y="440" />
            </Array>
          </mxGeometry>
        </mxCell>
        <mxCell id="Gohm2ubmYAme0MA3quc5-36" value="Ktam" style="edgeLabel;html=1;align=center;verticalAlign=middle;resizable=0;points=[];" parent="Gohm2ubmYAme0MA3quc5-34" vertex="1" connectable="0">
          <mxGeometry x="0.0127" y="1" relative="1" as="geometry">
            <mxPoint x="-5" y="-11" as="offset" />
          </mxGeometry>
        </mxCell>
        <mxCell id="Gohm2ubmYAme0MA3quc5-9" value="orange" style="rounded=1;whiteSpace=wrap;html=1;" parent="1" vertex="1">
          <mxGeometry x="650" y="330" width="70" height="40" as="geometry" />
        </mxCell>
        <mxCell id="Gohm2ubmYAme0MA3quc5-42" style="edgeStyle=orthogonalEdgeStyle;rounded=1;orthogonalLoop=1;jettySize=auto;html=1;exitX=0.5;exitY=1;exitDx=0;exitDy=0;entryX=0;entryY=0.5;entryDx=0;entryDy=0;curved=0;strokeWidth=2;" parent="1" source="Gohm2ubmYAme0MA3quc5-31" target="Gohm2ubmYAme0MA3quc5-38" edge="1">
          <mxGeometry relative="1" as="geometry">
            <Array as="points">
              <mxPoint x="519" y="550" />
              <mxPoint x="200" y="550" />
              <mxPoint x="200" y="655" />
            </Array>
          </mxGeometry>
        </mxCell>
        <mxCell id="Gohm2ubmYAme0MA3quc5-43" value="auto" style="edgeLabel;html=1;align=center;verticalAlign=middle;resizable=0;points=[];" parent="Gohm2ubmYAme0MA3quc5-42" vertex="1" connectable="0">
          <mxGeometry x="0.006" relative="1" as="geometry">
            <mxPoint x="1" y="-10" as="offset" />
          </mxGeometry>
        </mxCell>
        <mxCell id="Gohm2ubmYAme0MA3quc5-31" value="menu_size" style="rounded=1;whiteSpace=wrap;html=1;" parent="1" vertex="1">
          <mxGeometry x="458.5" y="480" width="120" height="60" as="geometry" />
        </mxCell>
        <mxCell id="Gohm2ubmYAme0MA3quc5-45" style="edgeStyle=orthogonalEdgeStyle;rounded=1;orthogonalLoop=1;jettySize=auto;html=1;exitX=0.75;exitY=0;exitDx=0;exitDy=0;entryX=0.25;entryY=0;entryDx=0;entryDy=0;curved=0;" parent="1" source="Gohm2ubmYAme0MA3quc5-38" target="Gohm2ubmYAme0MA3quc5-39" edge="1">
          <mxGeometry relative="1" as="geometry" />
        </mxCell>
        <mxCell id="Gohm2ubmYAme0MA3quc5-51" value="Knext" style="edgeLabel;html=1;align=center;verticalAlign=middle;resizable=0;points=[];" parent="Gohm2ubmYAme0MA3quc5-45" vertex="1" connectable="0">
          <mxGeometry x="-0.0057" y="-2" relative="1" as="geometry">
            <mxPoint y="8" as="offset" />
          </mxGeometry>
        </mxCell>
        <mxCell id="Gohm2ubmYAme0MA3quc5-60" style="edgeStyle=orthogonalEdgeStyle;rounded=1;orthogonalLoop=1;jettySize=auto;html=1;exitX=0.5;exitY=0;exitDx=0;exitDy=0;entryX=0.5;entryY=0;entryDx=0;entryDy=0;curved=0;" parent="1" source="Gohm2ubmYAme0MA3quc5-38" target="Gohm2ubmYAme0MA3quc5-41" edge="1">
          <mxGeometry relative="1" as="geometry">
            <Array as="points">
              <mxPoint x="260" y="600" />
              <mxPoint x="740" y="600" />
            </Array>
          </mxGeometry>
        </mxCell>
        <mxCell id="Gohm2ubmYAme0MA3quc5-61" value="Kback" style="edgeLabel;html=1;align=center;verticalAlign=middle;resizable=0;points=[];" parent="Gohm2ubmYAme0MA3quc5-60" vertex="1" connectable="0">
          <mxGeometry x="-0.1111" y="4" relative="1" as="geometry">
            <mxPoint x="30" y="-6" as="offset" />
          </mxGeometry>
        </mxCell>
        <mxCell id="Gohm2ubmYAme0MA3quc5-68" style="edgeStyle=orthogonalEdgeStyle;rounded=1;orthogonalLoop=1;jettySize=auto;html=1;exitX=0.5;exitY=1;exitDx=0;exitDy=0;entryX=0.25;entryY=0;entryDx=0;entryDy=0;fillColor=#ffe6cc;strokeColor=#d79b00;curved=0;" parent="1" source="Gohm2ubmYAme0MA3quc5-38" target="Gohm2ubmYAme0MA3quc5-65" edge="1">
          <mxGeometry relative="1" as="geometry">
            <Array as="points">
              <mxPoint x="260" y="740" />
              <mxPoint x="380" y="740" />
              <mxPoint x="380" y="770" />
              <mxPoint x="420" y="770" />
            </Array>
          </mxGeometry>
        </mxCell>
        <mxCell id="Gohm2ubmYAme0MA3quc5-69" style="edgeStyle=orthogonalEdgeStyle;rounded=1;orthogonalLoop=1;jettySize=auto;html=1;exitX=0.5;exitY=1;exitDx=0;exitDy=0;entryX=0.25;entryY=0;entryDx=0;entryDy=0;fillColor=#ffe6cc;strokeColor=#d79b00;curved=0;" parent="1" source="Gohm2ubmYAme0MA3quc5-38" target="Gohm2ubmYAme0MA3quc5-64" edge="1">
          <mxGeometry relative="1" as="geometry" />
        </mxCell>
        <mxCell id="Gohm2ubmYAme0MA3quc5-70" style="edgeStyle=orthogonalEdgeStyle;rounded=1;orthogonalLoop=1;jettySize=auto;html=1;exitX=0.5;exitY=1;exitDx=0;exitDy=0;entryX=0.25;entryY=0;entryDx=0;entryDy=0;fillColor=#ffe6cc;strokeColor=#d79b00;curved=0;" parent="1" source="Gohm2ubmYAme0MA3quc5-38" target="Gohm2ubmYAme0MA3quc5-66" edge="1">
          <mxGeometry relative="1" as="geometry">
            <Array as="points">
              <mxPoint x="260" y="740" />
              <mxPoint x="560" y="740" />
              <mxPoint x="560" y="770" />
              <mxPoint x="580" y="770" />
            </Array>
          </mxGeometry>
        </mxCell>
        <mxCell id="Gohm2ubmYAme0MA3quc5-38" value="tam_33" style="rounded=1;whiteSpace=wrap;html=1;fillColor=#ffe6cc;strokeColor=#d79b00;" parent="1" vertex="1">
          <mxGeometry x="220" y="635" width="80" height="40" as="geometry" />
        </mxCell>
        <mxCell id="Gohm2ubmYAme0MA3quc5-46" style="edgeStyle=orthogonalEdgeStyle;rounded=1;orthogonalLoop=1;jettySize=auto;html=1;exitX=0.25;exitY=1;exitDx=0;exitDy=0;entryX=0.75;entryY=1;entryDx=0;entryDy=0;curved=0;" parent="1" source="Gohm2ubmYAme0MA3quc5-39" target="Gohm2ubmYAme0MA3quc5-38" edge="1">
          <mxGeometry relative="1" as="geometry" />
        </mxCell>
        <mxCell id="Gohm2ubmYAme0MA3quc5-54" value="Kback" style="edgeLabel;html=1;align=center;verticalAlign=middle;resizable=0;points=[];" parent="Gohm2ubmYAme0MA3quc5-46" vertex="1" connectable="0">
          <mxGeometry x="0.0434" y="1" relative="1" as="geometry">
            <mxPoint y="-11" as="offset" />
          </mxGeometry>
        </mxCell>
        <mxCell id="Gohm2ubmYAme0MA3quc5-47" style="edgeStyle=orthogonalEdgeStyle;rounded=1;orthogonalLoop=1;jettySize=auto;html=1;exitX=0.75;exitY=0;exitDx=0;exitDy=0;entryX=0.25;entryY=0;entryDx=0;entryDy=0;curved=0;" parent="1" source="Gohm2ubmYAme0MA3quc5-39" target="Gohm2ubmYAme0MA3quc5-40" edge="1">
          <mxGeometry relative="1" as="geometry" />
        </mxCell>
        <mxCell id="Gohm2ubmYAme0MA3quc5-52" value="Knext" style="edgeLabel;html=1;align=center;verticalAlign=middle;resizable=0;points=[];" parent="Gohm2ubmYAme0MA3quc5-47" vertex="1" connectable="0">
          <mxGeometry x="-0.1097" y="-2" relative="1" as="geometry">
            <mxPoint x="9" y="8" as="offset" />
          </mxGeometry>
        </mxCell>
        <mxCell id="Gohm2ubmYAme0MA3quc5-71" style="edgeStyle=orthogonalEdgeStyle;rounded=1;orthogonalLoop=1;jettySize=auto;html=1;exitX=0.5;exitY=1;exitDx=0;exitDy=0;entryX=0.5;entryY=0;entryDx=0;entryDy=0;curved=0;fillColor=#f8cecc;strokeColor=#b85450;" parent="1" source="Gohm2ubmYAme0MA3quc5-39" target="Gohm2ubmYAme0MA3quc5-64" edge="1">
          <mxGeometry relative="1" as="geometry">
            <Array as="points">
              <mxPoint x="419" y="760" />
              <mxPoint x="290" y="760" />
            </Array>
          </mxGeometry>
        </mxCell>
        <mxCell id="Gohm2ubmYAme0MA3quc5-72" style="edgeStyle=orthogonalEdgeStyle;rounded=1;orthogonalLoop=1;jettySize=auto;html=1;exitX=0.5;exitY=1;exitDx=0;exitDy=0;curved=0;fillColor=#f8cecc;strokeColor=#b85450;" parent="1" source="Gohm2ubmYAme0MA3quc5-39" target="Gohm2ubmYAme0MA3quc5-65" edge="1">
          <mxGeometry relative="1" as="geometry">
            <Array as="points">
              <mxPoint x="419" y="760" />
              <mxPoint x="450" y="760" />
            </Array>
          </mxGeometry>
        </mxCell>
        <mxCell id="Gohm2ubmYAme0MA3quc5-73" style="edgeStyle=orthogonalEdgeStyle;rounded=1;orthogonalLoop=1;jettySize=auto;html=1;exitX=0.5;exitY=1;exitDx=0;exitDy=0;curved=0;fillColor=#f8cecc;strokeColor=#b85450;" parent="1" source="Gohm2ubmYAme0MA3quc5-39" target="Gohm2ubmYAme0MA3quc5-66" edge="1">
          <mxGeometry relative="1" as="geometry">
            <Array as="points">
              <mxPoint x="419" y="760" />
              <mxPoint x="610" y="760" />
            </Array>
          </mxGeometry>
        </mxCell>
        <mxCell id="Gohm2ubmYAme0MA3quc5-39" value="tam_25" style="rounded=1;whiteSpace=wrap;html=1;fillColor=#f8cecc;strokeColor=#b85450;" parent="1" vertex="1">
          <mxGeometry x="378.5" y="635" width="81.5" height="40" as="geometry" />
        </mxCell>
        <mxCell id="Gohm2ubmYAme0MA3quc5-48" style="edgeStyle=orthogonalEdgeStyle;rounded=1;orthogonalLoop=1;jettySize=auto;html=1;exitX=0.25;exitY=1;exitDx=0;exitDy=0;entryX=0.75;entryY=1;entryDx=0;entryDy=0;curved=0;" parent="1" source="Gohm2ubmYAme0MA3quc5-40" target="Gohm2ubmYAme0MA3quc5-39" edge="1">
          <mxGeometry relative="1" as="geometry" />
        </mxCell>
        <mxCell id="Gohm2ubmYAme0MA3quc5-55" value="Kback" style="edgeLabel;html=1;align=center;verticalAlign=middle;resizable=0;points=[];" parent="Gohm2ubmYAme0MA3quc5-48" vertex="1" connectable="0">
          <mxGeometry x="-0.0274" y="-2" relative="1" as="geometry">
            <mxPoint y="-8" as="offset" />
          </mxGeometry>
        </mxCell>
        <mxCell id="Gohm2ubmYAme0MA3quc5-49" style="edgeStyle=orthogonalEdgeStyle;rounded=1;orthogonalLoop=1;jettySize=auto;html=1;exitX=0.75;exitY=0;exitDx=0;exitDy=0;entryX=0.25;entryY=0;entryDx=0;entryDy=0;curved=0;" parent="1" source="Gohm2ubmYAme0MA3quc5-40" target="Gohm2ubmYAme0MA3quc5-41" edge="1">
          <mxGeometry relative="1" as="geometry" />
        </mxCell>
        <mxCell id="Gohm2ubmYAme0MA3quc5-53" value="Knext" style="edgeLabel;html=1;align=center;verticalAlign=middle;resizable=0;points=[];" parent="Gohm2ubmYAme0MA3quc5-49" vertex="1" connectable="0">
          <mxGeometry x="0.025" y="3" relative="1" as="geometry">
            <mxPoint y="13" as="offset" />
          </mxGeometry>
        </mxCell>
        <mxCell id="Gohm2ubmYAme0MA3quc5-74" style="edgeStyle=orthogonalEdgeStyle;rounded=1;orthogonalLoop=1;jettySize=auto;html=1;exitX=0.5;exitY=1;exitDx=0;exitDy=0;entryX=0.75;entryY=0;entryDx=0;entryDy=0;fillColor=#d5e8d4;strokeColor=#82b366;curved=0;" parent="1" source="Gohm2ubmYAme0MA3quc5-40" target="Gohm2ubmYAme0MA3quc5-64" edge="1">
          <mxGeometry relative="1" as="geometry">
            <Array as="points">
              <mxPoint x="580" y="780" />
              <mxPoint x="320" y="780" />
            </Array>
          </mxGeometry>
        </mxCell>
        <mxCell id="Gohm2ubmYAme0MA3quc5-75" style="edgeStyle=orthogonalEdgeStyle;rounded=1;orthogonalLoop=1;jettySize=auto;html=1;exitX=0.5;exitY=1;exitDx=0;exitDy=0;entryX=0.75;entryY=0;entryDx=0;entryDy=0;fillColor=#d5e8d4;strokeColor=#82b366;curved=0;" parent="1" source="Gohm2ubmYAme0MA3quc5-40" target="Gohm2ubmYAme0MA3quc5-66" edge="1">
          <mxGeometry relative="1" as="geometry">
            <Array as="points">
              <mxPoint x="580" y="780" />
              <mxPoint x="640" y="780" />
            </Array>
          </mxGeometry>
        </mxCell>
        <mxCell id="Gohm2ubmYAme0MA3quc5-77" style="edgeStyle=orthogonalEdgeStyle;rounded=1;orthogonalLoop=1;jettySize=auto;html=1;exitX=0.5;exitY=1;exitDx=0;exitDy=0;entryX=0.75;entryY=0;entryDx=0;entryDy=0;fillColor=#d5e8d4;strokeColor=#82b366;curved=0;" parent="1" source="Gohm2ubmYAme0MA3quc5-40" target="Gohm2ubmYAme0MA3quc5-65" edge="1">
          <mxGeometry relative="1" as="geometry">
            <Array as="points">
              <mxPoint x="580" y="780" />
              <mxPoint x="480" y="780" />
            </Array>
          </mxGeometry>
        </mxCell>
        <mxCell id="Gohm2ubmYAme0MA3quc5-40" value="tam_50" style="rounded=1;whiteSpace=wrap;html=1;fillColor=#d5e8d4;strokeColor=#82b366;" parent="1" vertex="1">
          <mxGeometry x="540" y="635" width="80" height="40" as="geometry" />
        </mxCell>
        <mxCell id="Gohm2ubmYAme0MA3quc5-50" style="edgeStyle=orthogonalEdgeStyle;rounded=1;orthogonalLoop=1;jettySize=auto;html=1;exitX=0.25;exitY=1;exitDx=0;exitDy=0;entryX=0.75;entryY=1;entryDx=0;entryDy=0;curved=0;" parent="1" source="Gohm2ubmYAme0MA3quc5-41" target="Gohm2ubmYAme0MA3quc5-40" edge="1">
          <mxGeometry relative="1" as="geometry" />
        </mxCell>
        <mxCell id="Gohm2ubmYAme0MA3quc5-56" value="Kback" style="edgeLabel;html=1;align=center;verticalAlign=middle;resizable=0;points=[];" parent="Gohm2ubmYAme0MA3quc5-50" vertex="1" connectable="0">
          <mxGeometry x="0.0125" y="-1" relative="1" as="geometry">
            <mxPoint y="-9" as="offset" />
          </mxGeometry>
        </mxCell>
        <mxCell id="Gohm2ubmYAme0MA3quc5-62" style="edgeStyle=orthogonalEdgeStyle;rounded=1;orthogonalLoop=1;jettySize=auto;html=1;exitX=0.75;exitY=0;exitDx=0;exitDy=0;entryX=0.25;entryY=0;entryDx=0;entryDy=0;curved=0;" parent="1" source="Gohm2ubmYAme0MA3quc5-41" target="Gohm2ubmYAme0MA3quc5-38" edge="1">
          <mxGeometry relative="1" as="geometry">
            <Array as="points">
              <mxPoint x="760" y="580" />
              <mxPoint x="240" y="580" />
            </Array>
          </mxGeometry>
        </mxCell>
        <mxCell id="Gohm2ubmYAme0MA3quc5-63" value="Knext" style="edgeLabel;html=1;align=center;verticalAlign=middle;resizable=0;points=[];" parent="Gohm2ubmYAme0MA3quc5-62" vertex="1" connectable="0">
          <mxGeometry x="-0.0677" y="-2" relative="1" as="geometry">
            <mxPoint x="-21" y="-8" as="offset" />
          </mxGeometry>
        </mxCell>
        <mxCell id="Gohm2ubmYAme0MA3quc5-76" style="edgeStyle=orthogonalEdgeStyle;rounded=1;orthogonalLoop=1;jettySize=auto;html=1;exitX=0.5;exitY=1;exitDx=0;exitDy=0;entryX=1;entryY=0.25;entryDx=0;entryDy=0;curved=0;fillColor=#dae8fc;strokeColor=#6c8ebf;" parent="1" source="Gohm2ubmYAme0MA3quc5-41" target="Gohm2ubmYAme0MA3quc5-64" edge="1">
          <mxGeometry relative="1" as="geometry">
            <mxPoint x="740" y="730" as="targetPoint" />
            <Array as="points">
              <mxPoint x="740" y="800" />
              <mxPoint x="370" y="800" />
              <mxPoint x="370" y="835" />
            </Array>
          </mxGeometry>
        </mxCell>
        <mxCell id="Gohm2ubmYAme0MA3quc5-79" style="edgeStyle=orthogonalEdgeStyle;rounded=1;orthogonalLoop=1;jettySize=auto;html=1;exitX=0.5;exitY=1;exitDx=0;exitDy=0;entryX=1;entryY=0.25;entryDx=0;entryDy=0;curved=0;fillColor=#dae8fc;strokeColor=#6c8ebf;" parent="1" source="Gohm2ubmYAme0MA3quc5-41" target="Gohm2ubmYAme0MA3quc5-65" edge="1">
          <mxGeometry relative="1" as="geometry">
            <Array as="points">
              <mxPoint x="740" y="800" />
              <mxPoint x="530" y="800" />
              <mxPoint x="530" y="835" />
            </Array>
          </mxGeometry>
        </mxCell>
        <mxCell id="Gohm2ubmYAme0MA3quc5-80" style="edgeStyle=orthogonalEdgeStyle;rounded=1;orthogonalLoop=1;jettySize=auto;html=1;exitX=0.5;exitY=1;exitDx=0;exitDy=0;entryX=1;entryY=0.25;entryDx=0;entryDy=0;curved=0;fillColor=#dae8fc;strokeColor=#6c8ebf;" parent="1" source="Gohm2ubmYAme0MA3quc5-41" target="Gohm2ubmYAme0MA3quc5-66" edge="1">
          <mxGeometry relative="1" as="geometry">
            <Array as="points">
              <mxPoint x="740" y="800" />
              <mxPoint x="700" y="800" />
              <mxPoint x="700" y="835" />
            </Array>
          </mxGeometry>
        </mxCell>
        <mxCell id="Gohm2ubmYAme0MA3quc5-41" value="tam_10" style="rounded=1;whiteSpace=wrap;html=1;fillColor=#dae8fc;strokeColor=#6c8ebf;" parent="1" vertex="1">
          <mxGeometry x="700" y="635" width="80" height="40" as="geometry" />
        </mxCell>
        <mxCell id="Gohm2ubmYAme0MA3quc5-82" style="edgeStyle=orthogonalEdgeStyle;rounded=1;orthogonalLoop=1;jettySize=auto;html=1;exitX=0.5;exitY=1;exitDx=0;exitDy=0;entryX=0.5;entryY=0;entryDx=0;entryDy=0;curved=0;strokeWidth=2;" parent="1" source="Gohm2ubmYAme0MA3quc5-64" target="Gohm2ubmYAme0MA3quc5-81" edge="1">
          <mxGeometry relative="1" as="geometry" />
        </mxCell>
        <mxCell id="e-ueGqNdDJw1pfVHbxV7-4" value="Kenter" style="edgeLabel;html=1;align=center;verticalAlign=middle;resizable=0;points=[];" vertex="1" connectable="0" parent="Gohm2ubmYAme0MA3quc5-82">
          <mxGeometry x="-0.1364" y="1" relative="1" as="geometry">
            <mxPoint x="5" y="-9" as="offset" />
          </mxGeometry>
        </mxCell>
        <mxCell id="Gohm2ubmYAme0MA3quc5-64" value="output_orange" style="rounded=1;whiteSpace=wrap;html=1;" parent="1" vertex="1">
          <mxGeometry x="230" y="820" width="120" height="60" as="geometry" />
        </mxCell>
        <mxCell id="Gohm2ubmYAme0MA3quc5-83" style="edgeStyle=orthogonalEdgeStyle;rounded=1;orthogonalLoop=1;jettySize=auto;html=1;exitX=0.5;exitY=1;exitDx=0;exitDy=0;curved=0;strokeWidth=2;entryX=0.5;entryY=0;entryDx=0;entryDy=0;" parent="1" source="Gohm2ubmYAme0MA3quc5-65" edge="1" target="Gohm2ubmYAme0MA3quc5-81">
          <mxGeometry relative="1" as="geometry">
            <mxPoint x="450" y="940" as="targetPoint" />
          </mxGeometry>
        </mxCell>
        <mxCell id="e-ueGqNdDJw1pfVHbxV7-7" value="Kenter" style="edgeLabel;html=1;align=center;verticalAlign=middle;resizable=0;points=[];rotation=90;" vertex="1" connectable="0" parent="Gohm2ubmYAme0MA3quc5-83">
          <mxGeometry x="-0.5333" y="3" relative="1" as="geometry">
            <mxPoint x="6" as="offset" />
          </mxGeometry>
        </mxCell>
        <mxCell id="Gohm2ubmYAme0MA3quc5-65" value="output_coke" style="rounded=1;whiteSpace=wrap;html=1;" parent="1" vertex="1">
          <mxGeometry x="390" y="820" width="120" height="60" as="geometry" />
        </mxCell>
        <mxCell id="Gohm2ubmYAme0MA3quc5-84" style="edgeStyle=orthogonalEdgeStyle;rounded=1;orthogonalLoop=1;jettySize=auto;html=1;exitX=0.5;exitY=1;exitDx=0;exitDy=0;curved=0;strokeWidth=2;" parent="1" source="Gohm2ubmYAme0MA3quc5-66" edge="1">
          <mxGeometry relative="1" as="geometry">
            <mxPoint x="450" y="970" as="targetPoint" />
          </mxGeometry>
        </mxCell>
        <mxCell id="e-ueGqNdDJw1pfVHbxV7-5" value="Kenter" style="edgeLabel;html=1;align=center;verticalAlign=middle;resizable=0;points=[];" vertex="1" connectable="0" parent="Gohm2ubmYAme0MA3quc5-84">
          <mxGeometry x="0.0114" y="-4" relative="1" as="geometry">
            <mxPoint x="11" y="-6" as="offset" />
          </mxGeometry>
        </mxCell>
        <mxCell id="Gohm2ubmYAme0MA3quc5-66" value="output_water" style="rounded=1;whiteSpace=wrap;html=1;" parent="1" vertex="1">
          <mxGeometry x="550" y="820" width="120" height="60" as="geometry" />
        </mxCell>
        <mxCell id="Gohm2ubmYAme0MA3quc5-86" style="edgeStyle=orthogonalEdgeStyle;rounded=1;orthogonalLoop=1;jettySize=auto;html=1;exitX=1;exitY=0.5;exitDx=0;exitDy=0;entryX=1;entryY=0.5;entryDx=0;entryDy=0;curved=0;strokeWidth=2;" parent="1" source="Gohm2ubmYAme0MA3quc5-81" target="Gohm2ubmYAme0MA3quc5-2" edge="1">
          <mxGeometry relative="1" as="geometry">
            <Array as="points">
              <mxPoint x="810" y="1000" />
              <mxPoint x="810" y="180" />
            </Array>
          </mxGeometry>
        </mxCell>
        <mxCell id="e-ueGqNdDJw1pfVHbxV7-8" value="Kenter" style="edgeLabel;html=1;align=center;verticalAlign=middle;resizable=0;points=[];" vertex="1" connectable="0" parent="Gohm2ubmYAme0MA3quc5-86">
          <mxGeometry x="-0.8307" y="-4" relative="1" as="geometry">
            <mxPoint x="3" y="-14" as="offset" />
          </mxGeometry>
        </mxCell>
        <mxCell id="Gohm2ubmYAme0MA3quc5-81" value="done" style="rounded=1;whiteSpace=wrap;html=1;" parent="1" vertex="1">
          <mxGeometry x="390" y="970" width="120" height="60" as="geometry" />
        </mxCell>
        <mxCell id="Gohm2ubmYAme0MA3quc5-88" value="Drink Selection menu" style="text;html=1;align=center;verticalAlign=middle;resizable=0;points=[];autosize=1;strokeColor=none;fillColor=none;rotation=0;fontColor=#FF8000;" parent="1" vertex="1">
          <mxGeometry x="448.5" y="220" width="140" height="30" as="geometry" />
        </mxCell>
        <mxCell id="Gohm2ubmYAme0MA3quc5-89" value="" style="rounded=1;whiteSpace=wrap;html=1;fillColor=#ffcc99;dashed=1;fillStyle=auto;strokeColor=#36393d;opacity=20;" parent="1" vertex="1">
          <mxGeometry x="310" y="250" width="420" height="210" as="geometry" />
        </mxCell>
        <mxCell id="Gohm2ubmYAme0MA3quc5-91" value="" style="rounded=1;whiteSpace=wrap;html=1;fillColor=#cdeb8b;dashed=1;fillStyle=auto;strokeColor=#36393d;opacity=20;" parent="1" vertex="1">
          <mxGeometry x="209.25" y="560" width="580.75" height="160" as="geometry" />
        </mxCell>
        <mxCell id="Gohm2ubmYAme0MA3quc5-92" value="Size Selection menu" style="text;html=1;align=center;verticalAlign=middle;resizable=0;points=[];autosize=1;strokeColor=none;fillColor=none;rotation=0;fontColor=#006600;" parent="1" vertex="1">
          <mxGeometry x="620" y="530" width="130" height="30" as="geometry" />
        </mxCell>
        <mxCell id="Gohm2ubmYAme0MA3quc5-93" value="Kenter &amp;amp; orange_s" style="text;html=1;align=center;verticalAlign=middle;resizable=0;points=[];autosize=1;strokeColor=none;fillColor=none;" parent="1" vertex="1">
          <mxGeometry x="240" y="780" width="120" height="30" as="geometry" />
        </mxCell>
        <mxCell id="e-ueGqNdDJw1pfVHbxV7-1" value="Kenter &amp;amp; coke_s" style="text;html=1;align=center;verticalAlign=middle;resizable=0;points=[];autosize=1;strokeColor=none;fillColor=none;" vertex="1" parent="1">
          <mxGeometry x="395" y="780" width="110" height="30" as="geometry" />
        </mxCell>
        <mxCell id="e-ueGqNdDJw1pfVHbxV7-2" value="Kenter &amp;amp; water_s" style="text;html=1;align=center;verticalAlign=middle;resizable=0;points=[];autosize=1;strokeColor=none;fillColor=none;" vertex="1" parent="1">
          <mxGeometry x="550" y="780" width="120" height="30" as="geometry" />
        </mxCell>
      </root>
    </mxGraphModel>
  </diagram>
</mxfile>
